<svg height="512" viewBox="0 0 64 64" width="512" xmlns="http://www.w3.org/2000/svg"><path d="m53 11.03v39.97a2.006 2.006 0 0 1 -2 2h-46a2.006 2.006 0 0 1 -2-2v-39.97z" fill="#5aaae7"/><path d="m53 13.8v37.2a2.006 2.006 0 0 1 -2 2h-36.28c10.72-5.69 28.67-17.87 38.28-39.2z" fill="#3d9ae2"/><path d="m43.8 25.68 3.7 5.6-2.5 4.33-3.7-5.6z" fill="#ee8700"/><path d="m52.5 22.62h.01c-.81 1.29-1.62 2.78-2.51 4.33l-3.49-5.28a11.818 11.818 0 0 1 3.65-2.61z" fill="#ee8700"/><g fill="#ff9811"><path d="m46.51 21.67 3.49 5.28-2.5 4.33-3.7-5.6 1-1.73a12.128 12.128 0 0 1 1.71-2.28z"/><path d="m53 31.61-5.5-.33-2.5 4.33 6.7.4 1.3-2.25 1.2-2.08z"/><path d="m53 18.15a12.377 12.377 0 0 0 -2.84.91l2.34 3.56h.01c.17-.25.33-.5.49-.73 1.88-2.74 3.89-4.28 7.15-2.86a11.85 11.85 0 0 0 -7.15-.88z"/></g><path d="m53 27.13-3-.18-2.5 4.33 5.5.33 1.2.07 2.5-4.33z" fill="#ee8700"/><path d="m53 22.65-.49-.03c-.81 1.29-1.62 2.78-2.51 4.33l3 .18 3.7.22 2.5-4.33z" fill="#ff9811"/><path d="m60.49 19.18c-.11-.05-.23-.11-.34-.15-3.26-1.42-5.27.12-7.15 2.86-.16.23-.32.48-.49.73l.49.03 6.2.37 2-3.46c-.23-.13-.47-.26-.71-.38z" fill="#ee8700"/><path d="m9 17h12v10h-12z" fill="#ffde55"/><path d="m53 5v6.03h-50v-6.03a2.006 2.006 0 0 1 2-2h46a2.006 2.006 0 0 1 2 2z" fill="#ff5023"/><path d="m8 6h2v2h-2z"/><path d="m12 6h2v2h-2z"/><path d="m16 6h2v2h-2z"/><path d="m16 56h-2v2h-2v2h2v2h2v-2h2v-2h-2z"/><path d="m20 58h2v2h-2z"/><path d="m24 58h2v2h-2z"/><path d="m28 58h2v2h-2z"/><path d="m60 32h-2v2h-2v2h2v2h2v-2h2v-2h-2z"/><path d="m58 40h2v2h-2z"/><path d="m58 44h2v2h-2z"/><path d="m58 48h2v2h-2z"/><path d="m21 16h-12a1 1 0 0 0 -1 1v10a1 1 0 0 0 1 1h12a1 1 0 0 0 1-1v-10a1 1 0 0 0 -1-1zm-1 10h-10v-8h10z"/><path d="m26 16h4v2h-4z"/><path d="m32 16h16v2h-16z"/><path d="m26 20h16v2h-16z"/><path d="m26 24h12v2h-12z"/><path d="m8 32h14v2h-14z"/><path d="m8 36h14v2h-14z"/><path d="m8 40h14v2h-14z"/><path d="m8 44h14v2h-14z"/><path d="m62.162 19.3a1 1 0 0 0 -.466-.608c-.327-.188-.645-.346-.959-.49a12.911 12.911 0 0 0 -6.737-1.185v-12.017a3 3 0 0 0 -3-3h-46a3 3 0 0 0 -3 3v46a3 3 0 0 0 3 3h46a3 3 0 0 0 3-3v-16.98l8.062-13.965a1 1 0 0 0 .1-.755zm-9.633 1.548-.859-1.3a11.123 11.123 0 0 1 2.494-.533 11.465 11.465 0 0 0 -1.635 1.829zm-2.711-.48 1.507 2.287c-.459.755-.916 1.556-1.387 2.388l-2.132-3.233a10.924 10.924 0 0 1 2.012-1.446zm-3.4 2.971 2.408 3.647-1.382 2.394-2.464-3.731.691-1.2a11.177 11.177 0 0 1 .746-1.114zm-2.556 4.246 2.464 3.731-1.382 2.394-2.464-3.731zm4.2 4.731 4.464.269-1.382 2.394-4.464-.268zm1.118-1.936 1.382-2.394 4.464.269-1.382 2.394zm2.491-4.33c.477-.841.936-1.647 1.392-2.394l4.463.269-1.382 2.393zm2.692-4.319a5.464 5.464 0 0 1 2.675-2.13 4.141 4.141 0 0 1 2.767.376l-1.161 2.011zm-49.363-17.731h46a1 1 0 0 1 1 1v5.032h-48v-5.032a1 1 0 0 1 1-1zm46 48h-46a1 1 0 0 1 -1-1v-38.968h48v5.327a12.961 12.961 0 0 0 -8.063 6.088l-3.5 6.063a1 1 0 0 0 .032 1.051l3.356 5.081-5.691 9.858 1.732 1 5.691-9.857 6.079.365h.06a.976.976 0 0 0 .3-.053v14.045a1 1 0 0 1 -.996 1z"/><path d="m26 32h4v2h-4z"/><path d="m32 32h6v2h-6z"/><path d="m26 36h12v2h-12z"/><path d="m26 40h8v2h-8z"/><path d="m36 40h2v2h-2z"/><path d="m26 44h6v2h-6z"/></svg>