<svg height="511pt" viewBox="-2 1 511 511.99892" width="511pt" xmlns="http://www.w3.org/2000/svg"><path d="m238.484375 475.949219c-16.355469 0-32.335937-1.65625-47.769531-4.796875-34.992188-7.128906-67.1875-21.9375-94.757813-42.605469-79.851562-59.789063-111.40625-159.785156-87.824219-250.554687 18.925782-72.886719 71.53125-132.203126 140.214844-160.324219 27.796875-11.386719 58.230469-17.667969 90.136719-17.667969 37.054687 0 72.121094 8.472656 103.394531 23.570312 71.070313 34.335938 122.460938 102.964844 132.707032 184.402344 17.96875 142.832032-93.332032 267.976563-236.101563 267.976563zm0 0" fill="#2fc0f0"/><path d="m238.484375 475.949219v-475.949219c37.054687 0 72.121094 8.472656 103.394531 23.570312 71.070313 34.335938 122.460938 102.964844 132.707032 184.402344 17.96875 142.832032-93.332032 267.976563-236.101563 267.976563zm0 0" fill="#0d91bd"/><path d="m282.089844 358.886719-43.605469 53.574219-47.769531 58.691406c-34.992188-7.128906-67.1875-21.9375-94.757813-42.605469v-138.03125c0-15.9375-6.195312-30.894531-17.453125-42.152344l-70.371094-70.371093c18.925782-72.886719 71.53125-132.203126 140.214844-160.324219l99.769532 99.769531c21.132812 21.132812 21.121093 55.328125-.007813 76.457031l-47.433594 47.433594h21.453125c5.914063 0 11.355469.65625 16.355469 1.785156 22.160156 4.980469 35.453125 19.078125 41.109375 25.066407 30.21875 31.949218 24.605469 68.84375 2.496094 90.707031zm0 0" fill="#a5e887"/><path d="m248.109375 193.894531-9.625 9.625v-95.714843l9.632813 9.632812c21.132812 21.132812 21.121093 55.328125-.007813 76.457031zm0 0" fill="#70da40"/><path d="m474.585938 207.972656h-60.242188c-39.957031 0-72.464844-32.507812-72.464844-72.480468v-111.921876c71.070313 34.335938 122.460938 102.964844 132.707032 184.402344zm0 0" fill="#70da40"/><path d="m386.53125 269.90625c-66.746094 0-121.046875 54.300781-121.046875 121.046875 0 66.742187 54.300781 121.046875 121.046875 121.046875s121.046875-54.304688 121.046875-121.046875c0-66.746094-54.300781-121.046875-121.046875-121.046875zm0 0" fill="#ffb655"/><path d="m507.578125 390.953125c0 66.746094-54.304687 121.042969-121.042969 121.042969h-.007812v-242.082032h.007812c66.738282 0 121.042969 54.292969 121.042969 121.039063zm0 0" fill="#ff9f22"/><path d="m475.316406 390.953125c0 48.960937-39.828125 88.78125-88.78125 88.78125-48.957031 0-88.789062-39.820313-88.789062-88.78125s39.832031-88.78125 88.789062-88.78125c48.953125 0 88.78125 39.820313 88.78125 88.78125zm0 0" fill="#ffe9cc"/><path d="m475.316406 390.953125c0 48.960937-39.828125 88.78125-88.78125 88.78125h-.007812v-177.5625h.007812c48.953125 0 88.78125 39.820313 88.78125 88.78125zm0 0" fill="#ffd399"/><path d="m450.671875 399.621094c-.410156 8.679687-7.882813 15.34375-16.570313 15.34375h-47.574218c-8.90625 0-16.132813-7.214844-16.132813-16.128906v-56.273438c0-8.6875 6.679688-16.164062 15.347657-16.570312.269531-.011719.527343-.023438.785156-.023438 8.914062 0 16.128906 7.226562 16.128906 16.132812v40.605469h31.894531c9.171875 0 16.550781 7.644531 16.121094 16.914063zm0 0" fill="#ffb655"/><path d="m450.671875 399.621094c-.410156 8.679687-7.882813 15.34375-16.570313 15.34375h-47.574218v-88.996094c8.914062 0 16.128906 7.226562 16.128906 16.132812v40.605469h31.894531c9.171875 0 16.550781 7.644531 16.121094 16.914063zm0 0" fill="#ff9f22"/></svg>