<svg id="Layer_1" enable-background="new 0 0 512 512" height="512" viewBox="0 0 512 512" width="512" xmlns="http://www.w3.org/2000/svg"><path d="m310.263 407.748h167.765v65.014h-167.765z" fill="#8c9ba7"/><path d="m310.263 407.748h33.972v65.014h-33.972z" fill="#798b97"/><path d="m274.101 34.244c-9.307 0-17.968 2.738-25.233 7.436 2.775 7.546 4.218 16.238 4.218 25.992v12.862c39.647 9.099 67.439 32.772 67.439 77.36v-77.408c0-25.539-20.785-46.242-46.424-46.242z" fill="#3d5959"/><path d="m209.618 76.059c15.428 0 30.119 1.413 43.468 4.476v-12.863c0-38.154-21.942-60.172-60.248-60.172h-24.77c-38.306 0-69.357 30.932-69.357 69.086v81.309c-.001-59.6 49.653-81.836 110.907-81.836z" fill="#537982"/><path d="m130 95.424v-18.838c0-37.204 29.527-67.525 66.512-69.015-1.209-.046-2.432-.071-3.675-.071h-24.77c-38.306 0-69.357 30.932-69.357 69.086v81.309c0-29.203 11.926-49.429 31.29-62.471z" fill="#3d5959"/><path d="m261.686 347.703c-2.837 25.74-25.063 45.779-52.068 45.779-27.007 0-49.232-20.039-52.069-45.779h-74.482c-27.069 0-49.095 21.486-49.095 47.895v70.801c0 3.514 2.892 6.363 6.459 6.363h269.832v-87.264c0-5.5 4.5-10 10-10h12.382v-27.795z" fill="#0592fb"/><path d="m75.709 466.398v-70.801c0-26.408 22.025-47.895 49.095-47.895h-41.737c-27.069 0-49.095 21.486-49.095 47.895v70.801c0 3.514 2.892 6.363 6.459 6.363h41.737c-3.567.001-6.459-2.849-6.459-6.363z" fill="#0181fb"/><path d="m240.604 315.466c-5.856 1.066-11.894 1.63-18.066 1.63h-25.841c-6.172 0-12.21-.564-18.066-1.63v32.237h-21.083c2.838 25.74 25.063 45.779 52.069 45.779s49.231-20.039 52.068-45.779h-21.082v-32.237z" fill="#ffbb85"/><path d="m196.697 317.096c-6.172 0-12.21-.564-18.066-1.63v32.237h-21.083c1.051 9.531 4.766 18.277 10.392 25.518h31.215c2.761 0 5-2.238 5-5v-51.125z" fill="#f5a86c"/><g fill="#fdd1a3"><path d="m98.71 221.377v-49.223h-15.116c-11.255 0-20.383 8.822-20.383 19.703v23.854c0 10.883 9.128 19.705 20.383 19.705h16.169c-.69-4.583-1.053-9.27-1.053-14.039z"/><path d="m335.644 172.154h-15.119v49.223c0 4.77-.362 9.456-1.052 14.039h16.171c11.258 0 20.379-8.822 20.379-19.705v-23.854c0-10.88-9.121-19.703-20.379-19.703z"/><path d="m209.618 76.059c-61.254 0-110.907 22.236-110.907 81.836v63.482c0 52.861 43.87 95.719 97.986 95.719h25.841c54.118 0 97.987-42.857 97.987-95.719v-63.482c0-59.6-49.654-81.836-110.907-81.836z"/></g><path d="m130 221.377v-63.482c0-54.432 41.419-77.694 95.262-81.32-5.112-.344-10.334-.516-15.645-.516-61.254 0-110.907 22.236-110.907 81.836v63.482c0 52.861 43.87 95.719 97.986 95.719h25.841c.911 0 1.819-.015 2.725-.038-52.856-1.411-95.262-43.71-95.262-95.681z" fill="#ffbb85"/><path d="m362.646 375.498v-39.498c0-17.369 14.131-31.5 31.5-31.5s31.5 14.131 31.5 31.5v39.498h30v-39.498c0-33.912-27.589-61.5-61.5-61.5s-61.5 27.588-61.5 61.5v39.498z" fill="#798b97"/><path d="m310.263 494.5c0 5.5 4.5 10 10 10h147.765c5.5 0 10-4.5 10-10v-21.738h-167.765z" fill="#fda613"/><path d="m468.028 375.498h-147.765c-5.5 0-10 4.5-10 10v22.25h167.765v-22.25c0-5.5-4.5-10-10-10z" fill="#fda613"/><path d="m344.235 385.498c0-5.5 4.5-10 10-10h-33.972c-5.5 0-10 4.5-10 10v22.25h33.972z" fill="#fa8701"/><path d="m344.235 494.5v-21.738h-33.972v21.738c0 5.5 4.5 10 10 10h33.972c-5.5 0-10-4.5-10-10z" fill="#fa8701"/><path d="m102 465.262h-60.528v-69.664c0-22.273 18.659-40.395 41.595-40.395h68.172c6.085 26.519 30.069 45.779 58.378 45.779s52.293-19.26 58.378-45.779h12.005c4.142 0 7.5-3.357 7.5-7.5s-3.358-7.5-7.5-7.5h-31.896v-18.68c38.84-9.497 69.219-40.113 77.604-78.607h9.936c15.373 0 27.879-12.204 27.879-27.205v-23.854c0-15-12.506-27.203-27.879-27.203h-7.619v-84.168c0-29.634-24.19-53.742-53.924-53.742-7.708 0-15.04 1.627-21.677 4.546-10.649-20.04-31.314-31.29-59.587-31.29h-24.77c-42.379 0-76.857 34.356-76.857 76.586v88.068h-7.616c-15.374 0-27.883 12.203-27.883 27.203v23.854c0 15.001 12.508 27.205 27.883 27.205h9.933c8.385 38.494 38.764 69.111 77.604 78.607v18.68h-88.064c-31.207 0-56.595 24.85-56.595 55.395v70.801c0 7.645 6.262 13.863 13.959 13.863h61.569c4.142 0 7.5-3.357 7.5-7.5s-3.358-7.5-7.5-7.5zm226.025-243.885v-41.723h7.619c7.102 0 12.879 5.475 12.879 12.203v23.854c0 6.729-5.777 12.205-12.879 12.205h-7.837c.139-2.163.218-4.342.218-6.539zm-244.431 6.539c-7.104 0-12.883-5.476-12.883-12.205v-23.854c0-6.729 5.779-12.203 12.883-12.203h7.616v41.723c0 2.197.079 4.376.218 6.539zm190.507-186.172c21.463 0 38.924 17.38 38.924 38.742v27.271c-5.481-7.456-12.449-13.944-20.904-19.425-9.035-5.855-19.576-10.414-31.535-13.677v-6.984c0-8.105-.934-15.581-2.73-22.379 4.947-2.273 10.448-3.548 16.245-3.548zm-167.891 34.842c0-33.959 27.75-61.586 61.858-61.586h24.77c34.015 0 52.748 18.706 52.748 52.672v3.691c-11.012-1.866-23.014-2.805-35.968-2.805-34.502 0-62.26 6.653-82.503 19.774-8.455 5.48-15.422 11.968-20.904 19.425v-31.171zm0 144.791v-63.482c0-25.306 9.778-44.475 29.063-56.975 17.523-11.357 43.231-17.361 74.345-17.361 31.113 0 56.821 6.004 74.344 17.361 19.285 12.5 29.063 31.669 29.063 56.975v63.482c0 48.644-40.592 88.219-90.487 88.219h-25.841c-49.895 0-90.487-39.575-90.487-88.219zm72.421 133.826c4.142 0 7.5-3.357 7.5-7.5v-23.623c3.476.339 7 .516 10.566.516h25.841c3.566 0 7.09-.177 10.566-.517v23.624c0 4.143 3.358 7.5 7.5 7.5h11.872c-5.708 18.022-22.843 30.779-42.858 30.779s-37.149-12.757-42.858-30.779z"/><path d="m206.408 225.6h13.4c4.142 0 7.5-3.357 7.5-7.5s-3.358-7.5-7.5-7.5h-12.146v-29.623c0-4.143-3.358-7.5-7.5-7.5s-7.5 3.357-7.5 7.5v31.029c0 7.496 6.166 13.594 13.746 13.594z"/><path d="m150.206 159.732c-4.142 0-7.5 3.357-7.5 7.5v22.029c0 4.143 3.358 7.5 7.5 7.5s7.5-3.357 7.5-7.5v-22.029c0-4.142-3.358-7.5-7.5-7.5z"/><path d="m269.029 196.762c4.142 0 7.5-3.357 7.5-7.5v-22.029c0-4.143-3.358-7.5-7.5-7.5s-7.5 3.357-7.5 7.5v22.029c0 4.142 3.358 7.5 7.5 7.5z"/><path d="m250.118 262.002c0-4.143-3.358-7.5-7.5-7.5h-66c-4.142 0-7.5 3.357-7.5 7.5 0 4.142 3.358 7.5 7.5 7.5h66c4.142 0 7.5-3.357 7.5-7.5z"/><path d="m478.028 425.499c4.142 0 7.5-3.357 7.5-7.5v-32.501c0-9.649-7.851-17.5-17.5-17.5h-4.882v-31.998c0-38.047-30.953-69-69-69s-69 30.953-69 69v4.203h-10.146c-4.142 0-7.5 3.357-7.5 7.5s3.358 7.5 7.5 7.5h10.146v12.795h-4.882c-9.649 0-17.5 7.851-17.5 17.5v79.764h-165.765c-4.142 0-7.5 3.357-7.5 7.5s3.358 7.5 7.5 7.5h165.764v14.238c0 9.649 7.851 17.5 17.5 17.5h147.765c9.649 0 17.5-7.851 17.5-17.5v-41.5c0-4.143-3.358-7.5-7.5-7.5s-7.5 3.357-7.5 7.5v12.262h-152.765v-50.014h152.765v2.751c0 4.143 3.358 7.5 7.5 7.5zm-7.5 54.763v14.238c0 1.355-1.145 2.5-2.5 2.5h-147.765c-1.355 0-2.5-1.145-2.5-2.5v-14.238zm-130.382-144.262c0-29.775 24.224-54 54-54s54 24.225 54 54v31.998h-15v-31.998c0-21.505-17.495-39-39-39s-39 17.495-39 39v31.998h-15zm78 0v31.998h-48v-31.998c0-13.233 10.767-24 24-24s24 10.767 24 24zm-100.383 64.248v-14.75c0-1.355 1.145-2.5 2.5-2.5h147.765c1.355 0 2.5 1.145 2.5 2.5v14.75z"/></svg>