<svg id="Capa_1" enable-background="new 0 0 510 510" height="512" viewBox="0 0 510 510" width="512" xmlns="http://www.w3.org/2000/svg"><path d="m510 222.3v270.2c0 4.2-1.73 8.01-4.53 10.73-2.7 2.64-6.39 4.27-10.47 4.27h-480c-4.08 0-7.77-1.63-10.47-4.27-2.8-2.72-4.53-6.53-4.53-10.73v-270.2z" fill="#3972e5"/><path d="m510 222.3v270.2c0 4.2-1.73 8.01-4.53 10.73-2.7 2.64-6.39 4.27-10.47 4.27h-240v-285.2z" fill="#1251e5"/><path d="m505.47 503.23c-2.7 2.64-6.39 4.27-10.47 4.27h-480c-4.08 0-7.77-1.63-10.47-4.27l250.47-236.37z" fill="#6092e5"/><path d="m505.47 503.23c-2.7 2.64-6.39 4.27-10.47 4.27h-240v-240.64z" fill="#3972e5"/><path d="m510 222.3-79.18 52.21-.05.05-167.51 110.47c-2.5 1.65-5.38 2.47-8.26 2.47s-5.76-.82-8.26-2.47l-167.54-110.49-.02-.03-79.18-52.21 245.08-216.06c2.84-2.5 6.38-3.74 9.92-3.74s7.08 1.24 9.92 3.74z" fill="#ffd675"/><path d="m510 222.3-79.18 52.21-.05.05-167.51 110.47c-2.5 1.65-5.38 2.47-8.26 2.47v-385c3.54 0 7.08 1.24 9.92 3.74z" fill="#ffbb4f"/><path d="m430.82 85.81v188.7l-.05.05-167.51 110.47c-2.5 1.65-5.38 2.47-8.26 2.47s-5.76-.82-8.26-2.47l-167.54-110.49-.02-.03v-188.7c0-8.28 6.71-15 15-15h321.64c8.29 0 15 6.72 15 15z" fill="#dcf2ea"/><path d="m430.82 85.81v188.7l-.05.05-167.51 110.47c-2.5 1.65-5.38 2.47-8.26 2.47v-316.69h160.82c8.29 0 15 6.72 15 15z" fill="#b5e5d3"/><path d="m342.85 164.94c0 8.28-6.71 15-15 15h-145.7c-8.29 0-15-6.72-15-15 0-8.29 6.71-15 15-15h145.7c8.29 0 15 6.71 15 15z" fill="#44446b"/><path d="m327.85 179.94h-72.85v-30h72.85c8.29 0 15 6.71 15 15 0 8.28-6.71 15-15 15z" fill="#35355e"/><path d="m342.85 236.38c0 8.29-6.71 15-15 15h-145.7c-8.29 0-15-6.71-15-15 0-8.28 6.71-15 15-15h145.7c8.29 0 15 6.72 15 15z" fill="#44446b"/><path d="m342.85 236.38c0 8.29-6.71 15-15 15h-72.85v-30h72.85c8.29 0 15 6.72 15 15z" fill="#35355e"/></svg>