<svg height="512pt" viewBox="0 0 512 512" width="512pt" xmlns="http://www.w3.org/2000/svg"><path d="m222.554688 328.097656c18.175781 19.3125 47.917968 19.3125 66.097656 0l7.082031-7.527344-9.71875-3.765624c-2.375-.917969-3.945313-3.203126-3.945313-5.753907v-19.585937c-7.335937 5.0625-16.222656 8.035156-25.792968 8.035156-10.015625 0-18.820313-2.75-26.019532-7.347656v18.675781c0 2.683594-1.648437 5.089844-4.148437 6.058594l-10.335937 4.007812zm0 0" fill="#eebda4"/><path d="m252.027344 328.097656c-3.242188-3.441406-1.964844-9.070312 2.441406-10.777344l1.113281-.433593c2.5-.96875 4.148438-3.375 4.148438-6.058594v-11.457031c-1.140625.085937-2.289063.132812-3.453125.132812-10.015625 0-18.816406-2.75-26.015625-7.351562v18.675781c0 2.683594-1.648438 5.089844-4.152344 6.058594l-10.335937 4.007812 6.78125 7.203125c12.867187 13.675782 31.527343 17.652344 47.78125 11.96875-6.703126-2.347656-13-6.328125-18.308594-11.96875zm0 0" fill="#e6b49e"/><path d="m255.617188 142.351562c-34.242188 0-62 27.757813-62 62v24.972657c4.144531-3.839844 11.425781-5.925781 17.179687-5.160157v-3.085937c0-2.457031 2.097656-4.398437 4.53125-4.214844 23.96875 1.722657 46.976563-5.894531 65.421875-17.941406 1.722656-1.125 4.003906-.847656 5.402344.65625 15.769531 16.949219 14.285156 16.296875 14.285156 18.507813v6.066406c6.308594-.945313 13.289062 1.003906 17.179688 4.617187v-24.417969c0-34.242187-27.757813-62-62-62zm0 0" fill="#7e8292"/><path d="m223.621094 204.351562c0-29.066406 20.003906-53.453124 46.996094-60.160156-4.804688-1.195312-9.828126-1.839844-15-1.839844-34.242188 0-62 27.757813-62 62v24.972657c4.144531-3.839844 11.425781-5.925781 17.179687-5.160157v-3.085937c0-2.457031 2.097656-4.398437 4.527344-4.214844 2.78125.203125 5.546875.261719 8.296875.21875zm0 0" fill="#75798a"/><path d="m301.132812 222.070312v33.964844c0 .367188-.019531.730469-.027343 1.097656 12.019531 1.820313 21.433593-6.863281 21.433593-17.527343-.003906-10.6875-9.425781-19.332031-21.40625-17.535157zm0 0" fill="#eebda4"/><path d="m210.105469 256.035156v-33.949218c-10.464844-1.398438-21.40625 6.632812-21.40625 17.515624 0 10.652344 9.394531 19.351563 21.433593 17.53125-.011718-.367187-.027343-.730468-.027343-1.097656zm0 0" fill="#eebda4"/><path d="m317.632812 227.386719c-3.898437-4.058594-9.796874-6.320313-16.5-5.316407v33.964844c0 .367188-.019531.730469-.027343 1.097656 6.722656 1.019532 12.628906-1.25 16.527343-5.316406zm0 0" fill="#e6b49e"/><path d="m210.105469 251.820312c-3.074219-3.203124-4.902344-7.519531-4.902344-12.21875 0-4.546874 1.914063-8.59375 4.902344-11.667968v-5.847656c-10.464844-1.398438-21.40625 6.632812-21.40625 17.515624 0 10.652344 9.394531 19.351563 21.433593 17.53125-.011718-.367187-.027343-.730468-.027343-1.097656zm0 0" fill="#e6b49e"/><path d="m286.152344 197.496094c-1.398438-1.503906-3.679688-1.785156-5.402344-.65625-18.445312 12.046875-42.839844 19.664062-66.808594 17.941406-2.433594-.183594-4.53125 1.757812-4.53125 4.214844v37.039062c0 23.804688 18.652344 45.546875 46.867188 45.546875 25.117187 0 45.550781-20.433593 45.550781-45.546875v-40.03125c0-2.210937.09375-1.558594-15.675781-18.507812zm0 0" fill="#f5c5a9"/><path d="m239.414062 256.035156v-42.761718c-8.355468 1.535156-16.941406 2.125-25.476562 1.511718-2.429688-.183594-4.527344 1.753906-4.527344 4.210938v37.039062c0 23.804688 18.652344 45.546875 46.867188 45.546875 5.078125 0 9.960937-.847656 14.527344-2.390625-19.351563-6.261718-31.390626-24.039062-31.390626-43.15625zm0 0" fill="#eebda4"/><path d="m294.972656 320.273438-7.167968 7.617187c-17.703126 18.8125-46.671876 18.8125-64.375.003906l-6.871094-7.304687-54.761719 21.230468s-5.566406 2.289063-11.480469 7.691407c25.683594 29.632812 63.59375 48.371093 105.886719 48.371093 42.289063 0 80.203125-18.738281 105.886719-48.371093-5.917969-5.402344-11.480469-7.691407-11.480469-7.691407zm0 0" fill="#00c3ff"/><path d="m179.183594 349.9375 17.773437-21.746094-35.160156 13.628906s-5.566406 2.289063-11.480469 7.691407c5.921875 6.832031 12.5 13.078125 19.625 18.652343 5.007813-12.730468 9.242188-18.226562 9.242188-18.226562zm0 0" fill="#00aaf0"/><path d="m488.894531 204.589844h-33.113281c-3.371094 0-6.335938-2.21875-7.285156-5.453125-4.050782-13.738281-9.539063-26.851563-16.277344-39.1875-1.617188-2.960938-1.09375-6.632813 1.292969-9.015625l23.441406-23.445313c6.175781-6.175781 6.175781-16.179687 0-22.355469l-50.074219-50.078124c-6.171875-6.171876-16.183594-6.171876-22.355468 0l-23.445313 23.445312c-2.386719 2.386719-6.054687 2.910156-9.019531 1.289062-12.335938-6.734374-25.449219-12.226562-39.183594-16.269531-3.234375-.953125-5.457031-3.917969-5.457031-7.289062v-33.113281c0-8.730469-7.074219-15.808594-15.804688-15.808594h-70.820312c-8.730469 0-15.808594 7.078125-15.808594 15.808594v33.113281c0 3.371093-2.21875 6.335937-5.453125 7.285156-13.738281 4.046875-26.851562 9.535156-39.1875 16.273437-2.960938 1.621094-6.632812 1.097657-9.019531-1.289062l-23.441407-23.445312c-6.171874-6.171876-16.183593-6.171876-22.355468 0l-50.078125 50.078124c-6.175781 6.175782-6.175781 16.183594 0 22.355469l23.445312 23.445313c2.386719 2.386718 2.910157 6.054687 1.289063 9.015625-6.734375 12.339843-12.226563 25.449219-16.273438 39.1875-.953125 3.234375-3.914062 5.453125-7.285156 5.453125h-33.113281c-8.730469 0-15.808594 7.078125-15.808594 15.808594v70.820312c0 8.730469 7.078125 15.808594 15.808594 15.808594h33.113281c3.367188 0 6.332031 2.21875 7.285156 5.453125 4.046875 13.734375 9.535156 26.847656 16.273438 39.1875 1.617187 2.960937 1.09375 6.628906-1.289063 9.015625l-23.445312 23.445312c-6.175781 6.171875-6.175781 16.183594 0 22.355469l50.074219 50.078125c6.175781 6.171875 16.183593 6.171875 22.355468 0l23.445313-23.445312c2.386719-2.386719 6.054687-2.910157 9.015625-1.292969 12.339844 6.742187 25.453125 12.230469 39.1875 16.277343 3.234375.949219 5.457031 3.914063 5.457031 7.285157v33.113281c0 8.730469 7.078125 15.808594 15.808594 15.808594h70.816406c8.730469 0 15.808594-7.078125 15.808594-15.808594v-33.113281c0-3.371094 2.222656-6.335938 5.453125-7.285157 13.738281-4.046874 26.847656-9.535156 39.1875-16.277343 2.960937-1.617188 6.628906-1.09375 9.015625 1.292969l23.445312 23.445312c6.175781 6.171875 16.183594 6.171875 22.355469 0l50.078125-50.078125c6.175781-6.175781 6.175781-16.183594 0-22.355469l-23.445313-23.445312c-2.386718-2.386719-2.90625-6.058594-1.289062-9.019532 6.738281-12.335937 12.226562-25.449218 16.273438-39.1875.953124-3.230468 3.914062-5.453124 7.285156-5.453124h33.117187c8.726563 0 15.804688-7.078126 15.804688-15.808594v-70.820313c.003906-8.726562-7.074219-15.804687-15.804688-15.804687zm-232.691406 191.292968c-77.359375 0-140.074219-62.710937-140.074219-140.074218 0-77.359375 62.714844-140.074219 140.074219-140.074219s140.074219 62.714844 140.074219 140.074219c0 77.363281-62.714844 140.074218-140.074219 140.074218zm0 0" fill="#e4eaf8"/><g fill="#d8dce5"><path d="m78.894531 150.933594c2.382813 2.386718 2.90625 6.054687 1.289063 9.015625-6.738282 12.339843-12.226563 25.449219-16.273438 39.1875-.953125 3.234375-3.917968 5.453125-7.285156 5.453125h30c3.371094 0 6.332031-2.21875 7.285156-5.453125 4.046875-13.738281 9.535156-26.847657 16.273438-39.1875 1.617187-2.960938 1.097656-6.628907-1.289063-9.015625l-23.445312-23.445313c-6.175781-6.175781-6.175781-16.179687 0-22.355469l46.253906-46.253906-3.824219-3.824218c-6.171875-6.171876-16.179687-6.171876-22.355468 0l-50.074219 50.078124c-6.175781 6.175782-6.175781 16.183594 0 22.355469zm0 0"/><path d="m37.703125 291.21875v-70.820312c0-8.730469 7.078125-15.804688 15.808594-15.804688h-30.003907c-8.730468 0-15.804687 7.074219-15.804687 15.804688v70.820312c0 8.730469 7.078125 15.808594 15.804687 15.808594h30.003907c-8.730469 0-15.808594-7.078125-15.808594-15.808594zm0 0"/><path d="m85.449219 406.488281c-6.175781-6.175781-6.175781-16.183593 0-22.359375l23.445312-23.445312c2.386719-2.386719 2.910157-6.054688 1.289063-9.015625-6.738282-12.335938-12.226563-25.453125-16.273438-39.1875-.953125-3.234375-3.914062-5.453125-7.285156-5.453125h-30c3.367188 0 6.332031 2.21875 7.285156 5.453125 4.046875 13.734375 9.535156 26.851562 16.273438 39.1875 1.617187 2.960937 1.09375 6.628906-1.289063 9.015625l-23.445312 23.445312c-6.175781 6.175782-6.175781 16.183594 0 22.359375l50.074219 50.074219c6.175781 6.175781 16.183593 6.175781 22.355468 0l3.824219-3.824219zm0 0"/><path d="m220.792969 7.308594c-8.730469 0-15.808594 7.078125-15.808594 15.808594v33.113281c0 2.917969-1.667969 5.519531-4.210937 6.789062 3.679687-1.417969 15.066406-5.453125 28.007812-6.523437 3.511719-.292969 6.203125-3.246094 6.203125-6.773438v-26.605468c0-8.730469 7.078125-15.808594 15.808594-15.808594zm0 0"/><path d="m234.984375 488.5v-24.261719c0-4.777343-3.621094-8.800781-8.375-9.242187-12.480469-1.164063-21.769531-4.609375-25.398437-6.144532 2.289062 1.339844 3.773437 3.792969 3.773437 6.535157v33.113281c0 8.730469 7.078125 15.808594 15.808594 15.808594h30.003906c-8.734375 0-15.8125-7.078125-15.8125-15.808594zm0 0"/></g><path d="m108.425781 256c0 36.523438 13.472657 71.097656 37 97.71875 58.820313 66.507812 162.460938 66.355469 221.148438 0 23.128906-26.121094 37-60.65625 37-97.71875 0-81.375-66.199219-147.578125-147.574219-147.578125-81.371094 0-147.574219 66.203125-147.574219 147.578125zm86.796875-16.355469c0-4 2.820313-7.328125 6.429688-9.015625v18.488282c-3.96875-1.59375-6.429688-5.351563-6.429688-9.472657zm5.617188-24.519531v-10.773438c0-30.089843 24.484375-54.574218 54.574218-54.574218 30.09375 0 54.574219 24.484375 54.574219 54.574218v10.503907c-.28125-.054688-.558593-.105469-.84375-.148438-.1875-3.273437-2.019531-5.417969-4.808593-8.527343-2.378907-2.644532-5.605469-6.003907-12.859376-13.800782-3.902343-4.191406-10.210937-4.957031-15-1.828125-18.613281 12.160157-41.296874 18.269531-62.226562 16.765625-5.179688-.390625-9.96875 2.726563-11.816406 7.492188-.074219.011718-1.554688.308594-1.59375.316406zm108.339844 15.054688c3.773437 1.503906 6.429687 5.1875 6.429687 9.464843 0 4.121094-2.464844 7.875-6.429687 9.472657zm-92.527344 25.917968v-33.628906c22.28125.832031 45.882812-5.59375 65.699218-17.878906 6.527344 6.996094 10.183594 10.828125 11.828126 12.714844v38.8125c-.074219 21.289062-17.363282 38.082031-38.101563 38.082031-24.320313 0-39.425781-18.996094-39.425781-38.101563zm39.425781 53.101563c6.601563 0 13.449219-1.375 18.324219-3.257813v5.238282c0 5.101562 2.914062 9.796874 7.375 12.128906-14.554688 15.027344-37.667969 15.164062-52.375.351562 4.890625-2.269531 8.125-7.265625 8.125-12.703125v-4.726562c6.097656 2.0625 12.582031 2.96875 18.550781 2.96875zm-41.769531 20.351562 3.417968 3.632813c20.710938 22 54.671876 21.996094 75.375 0l3.71875-3.949219c6.367188 2.464844 44.59375 17.269531 50.863282 19.695313.003906.003906.015625.007812.019531.007812.207031.09375.863281.398438 1.824219.933594-24.714844 24.621094-58.199219 38.703125-93.527344 38.703125-34.222656 0-68-13.269531-93.527344-38.707031.917969-.507813 1.535156-.796876 1.753906-.898438.023438-.007812.0625-.027344.078126-.03125 30.9375-11.996094 19.449218-7.542969 50.003906-19.386719zm145.398437 8.9375c-3.417969-2.199219-5.929687-3.269531-6.328125-3.4375-.050781-.019531-.101562-.039062-.148437-.058593-24.113281-9.339844-53.484375-20.714844-63.828125-24.71875v-12.875c9.9375-8.03125 16.925781-19.566407 19.074218-32.714844 13-1.726563 22.132813-12.574219 22.132813-25.039063 0-5.832031-2.011719-11.410156-5.621094-15.855469v-19.4375c0-38.363281-31.210937-69.574218-69.570312-69.574218-38.363281 0-69.574219 31.210937-69.574219 69.574218v19.945313c-3.648438 4.390625-5.621094 9.710937-5.621094 15.351563 0 12.515624 9.195313 23.339843 22.171875 25.042968 2.175781 12.847656 9.152344 25.160156 20.132813 33.566406v12.019532c-.398438.152344-8.929688 3.460937-8.929688 3.460937l-54.828125 21.253907c-.046875.019531-.097656.039062-.144531.058593-.402344.164063-2.914062 1.238281-6.332031 3.4375-68.996094-86.566406-6.980469-215.0625 103.707031-215.0625 110.695312 0 172.699219 128.503907 103.707031 215.0625zm0 0"/><path d="m488.691406 197.28125h-33.113281c-.042969 0-.078125-.027344-.089844-.074219-4.140625-14.039062-9.820312-27.722656-16.886719-40.660156-.023437-.042969-.019531-.089844.011719-.121094l23.441407-23.445312c9.113281-9.105469 9.113281-23.851563.003906-32.960938l-50.078125-50.078125c-9.109375-9.109375-23.851563-9.109375-32.964844 0l-23.445313 23.445313c-.027343.03125-.074218.035156-.117187.011719-12.945313-7.070313-26.628906-12.75-40.660156-16.882813-.046875-.015625-.074219-.050781-.074219-.09375v-33.113281c0-12.851563-10.457031-23.308594-23.308594-23.308594h-18.496094c-4.140624 0-7.5 3.359375-7.5 7.5 0 4.144531 3.359376 7.5 7.5 7.5h18.496094c4.582032 0 8.308594 3.726562 8.308594 8.308594v33.113281c0 6.644531 4.453125 12.601563 10.835938 14.480469 13.011718 3.832031 25.699218 9.101562 37.707031 15.660156 5.847656 3.191406 13.214843 2.136719 17.917969-2.570312l23.445312-23.445313c3.246094-3.246094 8.503906-3.246094 11.75 0l50.074219 50.078125c3.242187 3.242188 3.253906 8.492188 0 11.75l-23.441407 23.445312c-4.707031 4.703126-5.765624 12.070313-2.570312 17.914063 6.554688 12.003906 11.824219 24.695313 15.660156 37.714844 1.882813 6.378906 7.835938 10.832031 14.480469 10.832031h33.113281c4.582032 0 8.308594 3.730469 8.308594 8.308594v17.910156c0 4.140625 3.355469 7.5 7.5 7.5s7.5-3.359375 7.5-7.5v-17.910156c0-12.851563-10.457031-23.308594-23.308594-23.308594zm0 0"/><path d="m504.5 266c-4.144531 0-7.5 3.359375-7.5 7.5v17.910156c0 4.578125-3.726562 8.308594-8.308594 8.308594h-33.113281c-6.644531 0-12.601563 4.453125-14.480469 10.832031-3.835937 13.019531-9.105468 25.707031-15.660156 37.710938-3.191406 5.84375-2.136719 13.210937 2.566406 17.917969l23.445313 23.445312c3.25 3.246094 3.25 8.5 0 11.75l-50.074219 50.074219c-3.238281 3.238281-8.511719 3.242187-11.75 0l-23.445312-23.445313c-4.703126-4.703125-12.070313-5.757812-17.917969-2.570312-12.011719 6.5625-24.695313 11.828125-37.710938 15.664062-6.378906 1.878906-10.832031 7.832032-10.832031 14.480469v33.113281c0 4.578125-3.730469 8.308594-8.308594 8.308594h-70.820312c-4.578125 0-8.308594-3.730469-8.308594-8.308594v-33.113281c0-6.648437-4.453125-12.601563-10.835938-14.480469-13.011718-3.835937-25.699218-9.101562-37.707031-15.664062-5.847656-3.191406-13.214843-2.136719-17.917969 2.570312l-23.445312 23.445313c-3.238281 3.238281-8.507812 3.242187-11.746094 0l-50.078125-50.078125c-3.246093-3.246094-3.25-8.5 0-11.746094l23.445313-23.445312c4.703125-4.707032 5.761718-12.074219 2.566406-17.917969-6.558594-12.011719-11.828125-24.699219-15.660156-37.710938-1.878906-6.378906-7.832032-10.835937-14.480469-10.835937h-33.113281c-4.582032 0-8.308594-3.726563-8.308594-8.308594v-70.816406c0-4.582032 3.726562-8.308594 8.308594-8.308594h33.113281c6.644531 0 12.601563-4.457031 14.480469-10.835938 3.832031-13.011718 9.101562-25.699218 15.660156-37.710937 3.191406-5.84375 2.136719-13.210937-2.570312-17.917969l-23.441407-23.445312c-3.25-3.246094-3.25-8.5 0-11.746094l50.074219-50.078125c3.242188-3.242187 8.496094-3.253906 11.75 0l23.441406 23.445313c4.707032 4.707031 12.074219 5.765624 17.917969 2.570312 12.007813-6.558594 24.695313-11.828125 37.710937-15.664062 6.378907-1.875 10.835938-7.832032 10.835938-14.476563v-33.113281c0-4.582032 3.726562-8.308594 8.308594-8.308594h17.324218c4.140626 0 7.5-3.355469 7.5-7.5 0-4.140625-3.359374-7.5-7.5-7.5h-17.324218c-12.851563 0-23.308594 10.457031-23.308594 23.308594v33.113281c0 .042969-.027344.078125-.074219.089844-14.035156 4.136719-27.71875 9.816406-40.664062 16.886719-.042969.023437-.085938.019531-.117188-.011719l-23.441406-23.445313c-9.109375-9.109375-23.851563-9.109375-32.964844 0l-50.078125 50.078125c-9.109375 9.105469-9.113281 23.851563 0 32.960938l23.445313 23.445312c.03125.03125.035156.078125.011719.121094-7.070313 12.949219-12.753907 26.628906-16.886719 40.660156-.011719.046875-.050781.074219-.089844.074219h-33.113281c-12.851563 0-23.308594 10.457031-23.308594 23.308594v70.820312c0 12.851563 10.457031 23.308594 23.308594 23.308594h33.113281c.042969 0 .078125.027344.089844.074219 4.132812 14.03125 9.8125 27.710937 16.886719 40.660156.023437.042969.019531.089844-.011719.121094l-23.445313 23.441406c-9.109375 9.109375-9.109375 23.855469 0 32.964844l50.078125 50.078125c9.089844 9.085937 23.875 9.085937 32.960938 0l23.445312-23.449219c.03125-.027344.074219-.03125.117188-.007813 12.945312 7.070313 26.628906 12.75 40.664062 16.886719.042969.011719.074219.046875.074219.089844v33.113281c0 12.851563 10.457031 23.308594 23.308594 23.308594h70.816406c12.851562 0 23.308594-10.457031 23.308594-23.308594v-33.113281c0-.042969.03125-.078125.074218-.089844 14.035157-4.136719 27.714844-9.816406 40.660157-16.886719.042969-.023437.089843-.019531.121093.011719l23.445313 23.445313c9.085937 9.085937 23.875 9.085937 32.964844 0l50.074219-50.078125c9.109374-9.109375 9.113281-23.851563 0-32.960938l-23.445313-23.445312c-.03125-.03125-.035156-.078125-.011719-.121094 7.066406-12.941406 12.75-26.621094 16.886719-40.660156.011719-.046875.050781-.074219.089844-.074219h33.117187c12.851563 0 23.304688-10.457031 23.304688-23.308594v-17.910156c.003906-4.140625-3.355469-7.5-7.496094-7.5zm0 0"/></svg>